<?xml version="1.0" standalone="no"?><!DOCTYPE svg PUBLIC "-//W3C//DTD SVG 1.1//EN" "http://www.w3.org/Graphics/SVG/1.1/DTD/svg11.dtd"><svg class="icon" width="200px" height="200.00px" viewBox="0 0 1024 1024" version="1.1" xmlns="http://www.w3.org/2000/svg"><path d="M73.142857 0h877.714286v877.714286H73.142857z" fill="#FFFFFF" /><path d="M475.428571 82.285714c176.731429 0 320 143.268571 320 320 0 80.822857-29.952 154.642286-79.378285 210.962286l139.995428 140.013714-38.784 38.784-140.8-140.8A318.72 318.72 0 0 1 475.392 722.285714C298.752 722.084571 155.629714 578.944 155.428571 402.285714c0-176.731429 143.268571-320 320-320z m-79.652571 215.259429h-82.285714v41.142857h37.851428v116.187429c0 20.187429-2.742857 35.053714-8.228571 44.598857-5.028571 8.758857-13.750857 13.952-26.148572 15.597714l-3.474285 0.365714v42.788572c27.428571-0.658286 47.725714-8.338286 60.891428-23.04 13.769143 11.958857 30.72 18.377143 50.852572 19.309714l5.101714 0.109714h206.701714v-41.142857H430.336c-8.118857 0-15.414857-1.590857-21.888-4.772571a39.954286 39.954286 0 0 1-15.963429-14.317715c1.097143-5.705143 1.92-12.013714 2.468572-18.925714 0.365714-4.608 0.603429-9.435429 0.731428-14.482286l0.091429-7.734857v-155.684571z m140.873143-64.512h-44.434286v22.710857h-81.298286v41.142857h81.298286v20.406857h-69.12v40.813715h69.12v22.710857h-83.931428v40.813714h83.931428v81.956571h44.434286v-81.956571h48.713143v17.444571a12.745143 12.745143 0 0 1-3.785143 9.380572 12.489143 12.489143 0 0 1-7.222857 3.638857l-2.157715 0.146286h-16.786285v41.142857h34.889143c5.485714 0 10.587429-1.042286 15.305142-3.126857a40.923429 40.923429 0 0 0 21.065143-21.065143c1.664-3.766857 2.669714-7.789714 2.998857-12.068572l0.128-3.236571v-73.069714h-93.147428v-22.710857h78.006857v-40.813715h-78.006857v-20.406857h90.185143v-41.142857h-90.185143v-22.710857z m-140.873143 0h-44.434286v50.029714h44.434286v-50.029714z" fill="#111111" /></svg>