<?xml version="1.0" standalone="no"?><!DOCTYPE svg PUBLIC "-//W3C//DTD SVG 1.1//EN" "http://www.w3.org/Graphics/SVG/1.1/DTD/svg11.dtd"><svg class="icon" width="200px" height="200.00px" viewBox="0 0 1024 1024" version="1.1" xmlns="http://www.w3.org/2000/svg"><path d="M73.142857 0h877.714286v877.714286H73.142857z" fill="#FFFFFF" /><path d="M804.571429 45.714286A27.428571 27.428571 0 0 1 832 73.142857v687.305143a45.714286 45.714286 0 0 1-71.204571 37.942857L687.542857 749.147429l-62.262857 41.874285a45.714286 45.714286 0 0 1-48.073143 1.828572l-2.925714-1.828572L512 749.147429l-62.262857 41.874285a45.714286 45.714286 0 0 1-48.073143 1.828572l-2.925714-1.828572L336.457143 749.165714l-73.234286 49.243429a45.714286 45.714286 0 0 1-22.125714 7.68L237.714286 806.180571a45.714286 45.714286 0 0 1-45.714286-45.714285V73.142857A27.428571 27.428571 0 0 1 219.428571 45.714286z m-208.201143 178.944l-84.077715 84.041143-84.022857-84.041143-38.784 38.765714 74.843429 74.861714H384v54.857143h100.571429v54.857143H384v54.857143h100.553143L484.571429 585.142857h54.857142l-0.018285-82.285714H640v-54.857143h-100.571429v-54.857143H640v-54.857143h-79.707429l74.861715-74.843428-38.784-38.784z" fill="#111111" /></svg>