<?xml version="1.0" standalone="no"?><!DOCTYPE svg PUBLIC "-//W3C//DTD SVG 1.1//EN" "http://www.w3.org/Graphics/SVG/1.1/DTD/svg11.dtd"><svg class="icon" width="200px" height="200.00px" viewBox="0 0 1024 1024" version="1.1" xmlns="http://www.w3.org/2000/svg"><path d="M73.142857 0h877.714286v877.714286H73.142857z" fill="#FFFFFF" /><path d="M680.649143 459.666286l3.510857 1.883428a176.274286 176.274286 0 0 0 115.401143 16.237715l6.253714-1.371429 4.937143-1.261714c1.005714-0.256 1.993143-0.548571 2.980571-0.822857L813.714286 774.765714c0 10.697143-10.788571 19.492571-24.630857 20.553143L786.285714 795.428571l-196.571428-0.018285V585.142857h-164.571429v210.267429L237.714286 795.428571c-14.208 0-25.874286-8.137143-27.282286-18.56l-0.146286-2.121142V474.331429l3.931429 1.097142 3.968 0.987429 5.613714 1.225143 5.778286 1.042286a178.011429 178.011429 0 0 0 104.283428-14.08l5.924572-2.907429 3.620571-1.938286 6.125715 3.181715a176.219429 176.219429 0 0 0 71.405714 18.176l6.838857 0.146285 5.833143-0.109714 6.528-0.365714a178.688 178.688 0 0 0 60.891428-15.506286l6.253715-2.998857 4.772571-2.523429 4.918857 2.596572c22.418286 11.337143 46.994286 17.773714 72.32 18.761143l6.930286 0.146285 5.814857-0.109714 7.131429-0.420571a178.651429 178.651429 0 0 0 60.361143-15.469715l6.198857-2.980571 4.918857-2.614857zM764.672 100.571429a27.428571 27.428571 0 0 1 24.155429 14.445714l94.756571 176.201143a27.428571 27.428571 0 0 1 3.273143 12.928 121.929143 121.929143 0 0 1-203.245714 91.136l-3.126858-2.907429-4.333714 4.022857a121.435429 121.435429 0 0 1-75.172571 29.915429l-4.754286 0.091428c-31.817143 0-61.732571-12.434286-83.968-33.700571L512 392.448l-4.297143 3.949714a121.435429 121.435429 0 0 1-75.154286 29.915429l-4.754285 0.091428c-31.817143 0-61.750857-12.434286-83.986286-33.700571l-0.310857-0.329143-3.108572 2.925714a121.947429 121.947429 0 0 1-104.923428 28.745143l-4.589714-1.005714A121.929143 121.929143 0 0 1 137.142857 304.146286c0-4.516571 1.133714-8.96 3.273143-12.928L235.154286 115.017143a27.428571 27.428571 0 0 1 24.137143-14.445714z" fill="#111111" /></svg>