<?xml version="1.0" standalone="no"?><!DOCTYPE svg PUBLIC "-//W3C//DTD SVG 1.1//EN" "http://www.w3.org/Graphics/SVG/1.1/DTD/svg11.dtd"><svg class="icon" width="200px" height="200.00px" viewBox="0 0 1024 1024" version="1.1" xmlns="http://www.w3.org/2000/svg"><path d="M73.142857 0h877.714286v877.714286H73.142857z" fill="#FFFFFF" /><path d="M503.003429 47.158857a27.428571 27.428571 0 0 1 17.554285 0l292.772572 98.742857A27.428571 27.428571 0 0 1 832 171.885714v336.457143c0 100.114286-103.314286 204.745143-306.377143 320.073143a27.428571 27.428571 0 0 1-27.062857 0.018286C295.369143 713.344 192 608.694857 192 508.342857V171.885714a27.428571 27.428571 0 0 1 18.651429-25.984z m-69.010286 183.899429h-44.434286v48.054857h-39.826286v41.142857h26.331429a556.306286 556.306286 0 0 1-4.772571 28.635429 453.979429 453.979429 0 0 1-6.253715 27.812571c-2.304 8.886857-4.772571 17.170286-7.405714 24.850286-1.974857 5.76-4.022857 11.026286-6.107429 15.798857l-2.121142 4.608v82.285714a179.949714 179.949714 0 0 0 22.546285-36.864c5.357714-11.410286 10.185143-23.515429 14.482286-36.333714l3.126857-9.746286v135.936h44.434286V421.302857c5.046857 16.457143 10.861714 31.817143 17.444571 46.08a172.708571 172.708571 0 0 0 19.108572 32.329143l3.602285 4.534857v-82.285714a187.300571 187.300571 0 0 1-8.228571-20.406857c-2.633143-7.68-5.101714-15.963429-7.405714-24.850286s-4.388571-18.157714-6.253715-27.812571l-2.669714-14.390858-2.432-14.244571h26.660572v-41.142857h-39.826286v-48.054857z m240.274286 283.392H481.389714v39.497143h192.877715v-39.497143z m-78.994286-115.529143h-43.446857c2.413714 16.237714 4.333714 32.530286 5.76 48.877714 1.078857 12.251429 1.792 24.612571 2.194285 37.065143l0.274286 12.470857h43.776a615.954286 615.954286 0 0 0-2.633143-49.536 913.792 913.792 0 0 0-3.657143-32.621714l-2.267428-16.256z m75.044571 0h-43.446857a613.979429 613.979429 0 0 1-8.356571 86.089143l-2.176 12.324571H660.114286c2.852571-16.457143 5.156571-32.859429 6.912-49.206857 1.316571-12.251429 2.267429-24.557714 2.834285-36.882286l0.457143-12.324571z m-141.531428 0h-43.446857c2.413714 16.237714 4.333714 32.530286 5.76 48.877714 1.078857 12.251429 1.792 24.612571 2.194285 37.065143l0.274286 12.470857h43.446857a671.36 671.36 0 0 0-2.468571-49.536 812.745143 812.745143 0 0 0-3.510857-32.621714l-2.249143-16.256z m140.214857-59.574857h-182.345143v39.497143h182.345143v-39.497143z m-66.486857-106.971429h-49.371429a86.217143 86.217143 0 0 1-30.281143 31.926857 168.045714 168.045714 0 0 1-34.194285 16.402286l-7.277715 2.358857v45.750857a213.723429 213.723429 0 0 0 53.321143-20.077714 146.194286 146.194286 0 0 0 42.788572-34.56 145.481143 145.481143 0 0 0 42.953142 34.56 216.502857 216.502857 0 0 0 53.485715 20.077714V283.062857a169.819429 169.819429 0 0 1-41.142857-18.761143 86.272 86.272 0 0 1-27.757715-27.629714l-2.523428-4.297143z" fill="#111111" /></svg>