<?xml version="1.0" standalone="no"?><!DOCTYPE svg PUBLIC "-//W3C//DTD SVG 1.1//EN" "http://www.w3.org/Graphics/SVG/1.1/DTD/svg11.dtd"><svg class="icon" width="200px" height="200.00px" viewBox="0 0 1024 1024" version="1.1" xmlns="http://www.w3.org/2000/svg"><path d="M73.142857 0h877.714286v877.714286H73.142857z" fill="#FFFFFF" /><path d="M877.714286 137.142857A27.428571 27.428571 0 0 1 905.142857 164.571429v201.142857a27.428571 27.428571 0 0 1-27.428571 27.428571l-3.017143 0.091429A45.714286 45.714286 0 0 0 877.714286 484.571429l2.633143 0.128A27.428571 27.428571 0 0 1 905.142857 512v201.142857a27.428571 27.428571 0 0 1-27.428571 27.428572H146.285714A27.428571 27.428571 0 0 1 118.857143 713.142857V512A27.428571 27.428571 0 0 1 146.285714 484.571429l2.998857-0.091429A45.714286 45.714286 0 0 0 146.285714 393.142857l-2.651428-0.128A27.428571 27.428571 0 0 1 118.857143 365.714286V164.571429A27.428571 27.428571 0 0 1 146.285714 137.142857z m-296.100572 138.185143l-69.266285 69.284571-69.266286-69.284571-38.784 38.802286 58.258286 58.258285H402.285714v54.857143h82.285715v39.186286H402.285714v54.857143h82.285715v66.614857h54.857142v-66.614857H621.714286v-54.857143h-82.285715v-39.186286H621.714286v-54.857143h-59.574857l58.276571-58.258285-38.802286-38.802286z" fill="#111111" /></svg>