<?xml version="1.0" standalone="no"?><!DOCTYPE svg PUBLIC "-//W3C//DTD SVG 1.1//EN" "http://www.w3.org/Graphics/SVG/1.1/DTD/svg11.dtd"><svg class="icon" width="200px" height="200.00px" viewBox="0 0 1024 1024" version="1.1" xmlns="http://www.w3.org/2000/svg"><path d="M0 0h1024v1024H0z" fill="#FFFFFF" /><path d="M512 328c172.202667 0 330.922667 57.813333 457.770667 155.093333a465.450667 465.450667 0 0 1 0.064 56.896 314.709333 314.709333 0 0 0-78.570667-9.92c-173.290667 0-313.792 140.48-313.792 313.792 0 41.813333 8.192 81.770667 23.061333 118.272-28.629333 5.589333-58.24 8.533333-88.533333 8.533334-30.293333 0-59.904-2.944-88.533333-8.533334a312.618667 312.618667 0 0 0 23.04-118.272c0-173.312-140.48-313.792-313.770667-313.792-27.136 0-53.461333 3.456-78.570667 9.92a464.96 464.96 0 0 1 0.064-56.874666A749.525333 749.525333 0 0 1 512 328z m379.264 260.736c24.704 0 48.597333 3.52 71.189333 10.069333-31.317333 163.52-149.461333 296.192-304.597333 348.181334a254.314667 254.314667 0 0 1-21.717333-103.125334c0-140.906667 114.218667-255.125333 255.125333-255.125333z m-758.528 0c140.906667 0 255.125333 114.218667 255.125333 255.125333 0 36.693333-7.765333 71.573333-21.717333 103.125334-155.136-51.989333-273.28-184.661333-304.597333-348.16 22.613333-6.570667 46.485333-10.090667 71.189333-10.090667zM512 426.666667a85.333333 85.333333 0 1 0 0 170.666666 85.333333 85.333333 0 0 0 0-170.666666z m0-373.333334c215.552 0 396.373333 148.693333 445.504 349.12A807.594667 807.594667 0 0 0 512 269.333333a807.765333 807.765333 0 0 0-445.525333 133.12C115.605333 202.026667 296.448 53.333333 512 53.333333z" fill="#111111" /></svg>