<?xml version="1.0" standalone="no"?><!DOCTYPE svg PUBLIC "-//W3C//DTD SVG 1.1//EN" "http://www.w3.org/Graphics/SVG/1.1/DTD/svg11.dtd"><svg class="icon" width="200px" height="200.00px" viewBox="0 0 1024 1024" version="1.1" xmlns="http://www.w3.org/2000/svg"><path d="M0 0h1024v1024H0z" fill="#FFFFFF" /><path d="M774.4 108.053333l140.8 176.512a32 32 0 0 1 6.826667 16.853334l0.149333 3.114666v392.170667c0 56.96-45.738667 103.296-102.4 103.296-55.104 0-99.904-43.861333-102.293333-98.709333l-0.106667-4.586667V372.672H650.666667v480.64L938.666667 853.333333v64H85.333333v-64h74.666667V149.333333a32 32 0 0 1 28.928-31.850666L192 117.333333h426.666667a32 32 0 0 1 31.850666 28.928L650.666667 149.333333v159.338667h98.709333a32 32 0 0 1 31.850667 28.928l0.149333 3.072v356.032c0 21.781333 17.28 39.296 38.4 39.296 20.053333 0 36.672-15.786667 38.272-36.053333l0.128-3.242667V315.712l-133.802667-167.765333 50.026667-39.893334zM490.666667 320h-170.666667a21.333333 21.333333 0 0 0-21.333333 21.333333v170.666667a21.333333 21.333333 0 0 0 21.333333 21.333333h170.666667a21.333333 21.333333 0 0 0 21.333333-21.333333v-170.666667a21.333333 21.333333 0 0 0-21.333333-21.333333z" fill="#111111" /></svg>