<?xml version="1.0" standalone="no"?><!DOCTYPE svg PUBLIC "-//W3C//DTD SVG 1.1//EN" "http://www.w3.org/Graphics/SVG/1.1/DTD/svg11.dtd"><svg class="icon" width="200px" height="200.00px" viewBox="0 0 1024 1024" version="1.1" xmlns="http://www.w3.org/2000/svg"><path d="M0 0h1024v1024H0z" fill="#FFFFFF" /><path d="M761.685333 81.493333l2.389334 2.069334 111.381333 106.666666a32 32 0 0 1 9.706667 19.84L885.333333 213.333333v704a32 32 0 0 1-28.928 31.850667L853.333333 949.333333H170.666667a32 32 0 0 1-31.850667-28.928L138.666667 917.333333V213.333333a32 32 0 0 1 28.928-31.850666L170.666667 181.333333h445.909333l103.36-97.898666a32 32 0 0 1 41.749333-1.962667zM391.786667 362.666667C329.706667 433.514667 298.666667 486.698667 298.666667 522.218667 298.666667 575.488 340.352 618.666667 391.786667 618.666667c51.434667 0 93.12-43.178667 93.12-96.448 0-35.52-31.04-88.704-93.12-159.552zM512 64v64H256V64h256z" fill="#111111" /></svg>