<svg width="192" height="192" xmlns="http://www.w3.org/2000/svg" version="1.1">

 <g>
  <title>Layer 1</title>
  <path id="svg_1" fill="#ffffff" d="m116.95349,37.25581c1.64453,1.08203 1.64453,1.08203 3,3c0.51172,3.13672 0.51172,3.13672 0.6875,6.6875c0.06574,1.17949 0.13148,2.35898 0.19922,3.57422c0.05607,1.35545 0.05607,1.35545 0.11328,2.73828c0.5775,-0.68062 1.155,-1.36125 1.75,-2.0625c2.25,-1.9375 2.25,-1.9375 4.09717,-1.82935c2.92612,1.2122 4.61458,2.98204 6.84814,5.22388c0.88043,0.88108 1.76086,1.76215 2.66797,2.66992c0.91137,0.92748 1.82274,1.85496 2.76172,2.81055c0.9191,0.91588 1.8382,1.83176 2.78516,2.77539c9.36177,9.43738 9.36177,9.43738 9.46484,16.72461c-0.07203,5.37377 -1.28755,8.34577 -4.375,12.6875c-4,0 -4,0 -5.78125,-1.75c-1.14583,-1.5 -2.29167,-3 -3.4375,-4.5c-1.84063,-2.21721 -1.84063,-2.21721 -5.78125,-1.75c-0.66,0.68062 -1.32,1.36125 -2,2.0625c-0.66,0.63938 -1.32,1.27875 -2,1.9375c-3.00639,-0.1879 -5.33961,-1.65872 -8,-3c-3.43589,3.16168 -6.83216,6.35959 -10.19897,9.59473c-1.1474,1.09245 -2.30452,2.17478 -3.47168,3.24609c-7.07765,6.01416 -7.07765,6.01416 -10.76148,14.06689c0.0485,0.95085 0.097,1.90169 0.14697,2.88135c0.09905,5.61279 -1.84733,8.10044 -5.5189,12.04212c-3.49203,3.51248 -7.07462,6.9154 -10.69594,10.29382c-2.19938,2.10471 -4.39113,4.21715 -6.58264,6.33005c-1.36134,1.30662 -2.72893,2.60677 -4.10327,3.89972c-0.61734,0.58176 -1.23468,1.16352 -1.87073,1.76291c-0.81821,0.76511 -0.81821,0.76511 -1.65295,1.54568c-1.41078,1.3278 -1.41078,1.3278 -2.29041,3.33664c-3.72641,-0.57233 -5.44518,-2.07045 -8.07422,-4.71094c-0.74959,-0.75023 -1.49918,-1.50047 -2.27148,-2.27343c-0.7728,-0.78891 -1.54559,-1.57782 -2.3418,-2.39063c-1.17659,-1.17176 -1.17659,-1.17176 -2.37695,-2.36719c-5.802,-5.85715 -5.802,-5.85715 -6.93555,-9.25781c4.44011,-4.72053 8.924,-9.39616 13.43994,-14.04419c1.52882,-1.58391 3.04759,-3.17758 4.55567,-4.78125c14.17595,-15.05084 14.17595,-15.05084 22.08251,-15.70972c2.90333,0.17163 2.90333,0.17163 4.92188,0.53516c0,-6.09883 -3.79171,-8.52783 -7.9375,-12.6875c-0.73541,-0.78439 -1.47082,-1.56879 -2.22852,-2.37695c-4.5781,-4.62608 -7.14074,-6.37287 -13.60473,-6.52271c-4.69218,-0.86896 -7.69786,-4.82423 -10.85425,-8.16284c-0.7309,-0.71672 -1.4618,-1.43344 -2.21484,-2.17187c-3.92718,-4.02332 -3.92718,-4.02332 -5.16016,-6.07813c0.28914,-5.55307 3.55158,-8.1835 7.3125,-11.875c0.58201,-0.60586 1.16402,-1.21172 1.76367,-1.83594c0.56912,-0.56718 1.13824,-1.13437 1.72461,-1.71875c0.51732,-0.51804 1.03464,-1.03608 1.56763,-1.56982c1.63159,-1.00049 1.63159,-1.00049 3.60425,-0.85474c3.96057,1.66884 6.70159,4.93217 9.71484,7.91675c0.689,0.64389 1.37801,1.28777 2.08789,1.95117c4.06942,4.0134 5.43522,5.99276 5.66089,11.85523c1.34209,5.07368 6.41738,8.66455 10.12622,12.1311c0.9017,0.87012 1.8034,1.74023 2.73242,2.63672c2.22003,2.1378 4.45469,4.25754 6.70508,6.36328c3.63303,-1.69586 5.94549,-3.738 8.75,-6.625c0.79922,-0.81727 1.59844,-1.63453 2.42187,-2.47656c0.60329,-0.62649 1.20657,-1.25297 1.82813,-1.89844c-0.31195,-0.61875 -0.62391,-1.2375 -0.94531,-1.875c-1.91274,-3.85381 -1.91274,-3.85381 -2.05469,-6.125c1.28965,-1.37563 2.62187,-2.71303 4,-4c-0.90363,-0.03738 -1.80727,-0.07477 -2.73828,-0.11328c-1.76924,-0.09861 -1.76924,-0.09861 -3.57422,-0.19922c-1.17176,-0.05801 -2.34352,-0.11602 -3.55078,-0.17578c-3.13672,-0.51172 -3.13672,-0.51172 -5.11719,-1.80469c-1.01953,-1.70703 -1.01953,-1.70703 -0.82886,-3.54321c1.05897,-2.83126 2.60873,-4.35178 4.73902,-6.49194c0.79535,-0.79922 1.5907,-1.59844 2.41015,-2.42188c0.83661,-0.825 1.67321,-1.65 2.53516,-2.5c0.82887,-0.84047 1.65773,-1.68094 2.51172,-2.54687c1.19689,-1.1911 1.19689,-1.1911 2.41797,-2.40625c1.09804,-1.09297 1.09804,-1.09297 2.21826,-2.20801c1.97705,-1.58887 1.97705,-1.58887 4.97705,-1.58887z"/>
  <path id="svg_2" fill="#ffffff" d="m121.95349,100.25581c2.83187,1.89876 5.06399,4.27159 7.39453,6.74609c0.67343,0.68571 1.34686,1.37142 2.0407,2.0779c2.14286,2.18857 4.26031,4.3999 6.37727,6.61351c2.13984,2.20464 4.28454,4.40444 6.43083,6.6028c1.33265,1.36855 2.66053,2.74176 3.98319,4.11996c0.5979,0.62057 1.19579,1.24114 1.81181,1.88051c0.52516,0.54849 1.05031,1.09698 1.59138,1.6621c1.35966,1.41269 1.35966,1.41269 3.37029,2.29713c-1.41921,3.24095 -3.13308,5.35836 -5.66016,7.82031c-1.06637,1.04994 -1.06637,1.04994 -2.15429,2.1211c-0.74186,0.72058 -1.48371,1.44117 -2.24805,2.18359c-1.47223,1.43788 -2.94239,2.87788 -4.41016,4.32031c-0.65234,0.63438 -1.30469,1.26876 -1.9768,1.92237c-1.6394,1.56691 -1.6394,1.56691 -2.55054,3.63232c-3,0 -3,0 -4.40894,-1.33032c-0.76244,-0.95218 -0.76244,-0.95218 -1.54028,-1.92359c-4.47246,-5.33566 -9.36761,-10.21345 -14.29565,-15.12133c-1.58559,-1.58016 -3.16566,-3.16568 -4.74536,-4.75171c-1.00945,-1.00879 -2.0192,-2.01726 -3.0293,-3.02539c-0.90855,-0.90742 -1.8171,-1.81484 -2.75318,-2.74976c-2.04246,-2.12537 -2.04246,-2.12537 -4.22729,-3.0979c-0.7802,-6.71713 -0.7802,-6.71713 1.19971,-9.97266c1.69611,-1.963 3.47678,-3.74642 5.36279,-5.52734c0.60908,-0.63164 1.21816,-1.26328 1.8457,-1.91406c4.17152,-4.07882 6.49771,-5.55932 12.5918,-4.58594z"/>
 </g>
</svg>